<svg xmlns="http://www.w3.org/2000/svg" viewBox="0 0 64 64" role="img" aria-label="Mpraeso Presby">
  <defs>
    <linearGradient id="f" x1="0" y1="1" x2="0" y2="0">
      <stop offset="0" stop-color="#C8572B"/>
      <stop offset="1" stop-color="#E9B44C"/>
    </linearGradient>
  </defs>
  <rect width="64" height="64" rx="14" fill="#0F2A4A"/>
  <g transform="translate(4 2) scale(0.875)">
    <path fill="url(#f)" d="M32 4C35 14 46 20 46 34C46 44 40 50 32 50C24 50 18 44 18 35C18 27 23 23 25 16C28 22 28 26 31 28C31 20 30 12 32 4Z"/>
    <path fill="#F7F1E6" opacity=".9" d="M32 27C35 32 39 35 39 40C39 45 36 48 32 48C28 48 25 45 25 41C25 36 29 33 32 27Z"/>
    <path fill="#F7F1E6" d="M3 66C4 60 8 57 12 58C12 53 17 50 21 53C23 48 29 47 32 51C35 47 41 48 43 53C47 50 52 53 52 58C56 57 60 60 61 66Z"/>
  </g>
</svg>
